<?xml version="1.0" encoding="utf-8"?>
<!-- Svg Vector Icons : http://www.sfont.cn -->
<!DOCTYPE svg PUBLIC "-//W3C//DTD SVG 1.1//EN" "http://www.w3.org/Graphics/SVG/1.1/DTD/svg11.dtd">
<svg version="1.1" xmlns="http://www.w3.org/2000/svg" xmlns:xlink="http://www.w3.org/1999/xlink" x="0px" y="0px" viewBox="0 0 1000 1000" enable-background="new 0 0 1000 1000" xml:space="preserve">
<metadata> Svg Vector Icons : http://www.sfont.cn </metadata>
<g><path d="M914.6,85.4H85.4c-41.6,0-75.4,33.8-75.4,75.4v678.5c0,41.6,33.8,75.4,75.4,75.4h829.2c41.6,0,75.4-33.8,75.4-75.4V160.8C990,119.1,956.2,85.4,914.6,85.4z M914.6,839.2H85.4V160.8h829.2V839.2z M273.8,424.6c41.6,0,75.4-33.8,75.4-75.4c0-41.7-33.8-75.4-75.4-75.4c-41.6,0-75.4,33.7-75.4,75.4C198.5,390.9,232.2,424.6,273.8,424.6z M650.8,386.9L427.4,695L311.5,537.7L123.1,801.5h753.8L650.8,386.9z"/></g>
</svg>