<?xml version="1.0" encoding="utf-8"?>
<!-- Svg Vector Icons : http://www.sfont.cn -->
<!DOCTYPE svg PUBLIC "-//W3C//DTD SVG 1.1//EN" "http://www.w3.org/Graphics/SVG/1.1/DTD/svg11.dtd">
<svg version="1.1" xmlns="http://www.w3.org/2000/svg" xmlns:xlink="http://www.w3.org/1999/xlink" x="0px" y="0px" viewBox="0 0 1000 1000" enable-background="new 0 0 1000 1000" xml:space="preserve">
<metadata> Svg Vector Icons : http://www.sfont.cn </metadata>
<g><path d="M495.6,619H220.2c-18.5,0-33.4,15.4-33.4,33.8c0,18.4,14.9,33.8,33.4,33.8h275.3c18.4,0,33.4-15.4,33.4-33.8C529,634.4,514,619,495.6,619z"/><path d="M889.8,292.3H857v-74.9c0-36.9-30.7-67.4-67.5-67.4H468.2l-14-34.8c-11.4-23.3-35.6-37.6-61.5-37.6H110.2C54.9,77.7,10,121.7,10,176.9v646.1c0,55.2,44.9,99.3,100.2,99.3h668.3c116.6,0,211.5-106.4,211.5-210.6v-77.4v-150v-91.9C990,337.2,945,292.3,889.8,292.3z M750.6,220c16.3,0,29.4,13,29.4,29.3v43H529.9L501,220H750.6z M920,484.5v144.9v77.2C920,786,855,850,775.6,850H113.3C94.9,850,80,836.1,80,817.7V182.3c0-18.4,14.9-32.3,33.3-32.3h279.6c0.6,0,1.2-0.1,1.5,0.4l79.8,192.3c4,9.7,13.5,16,24.1,16.1c77.7,0.5,388.4,0.7,388.4,0.7c18.4,0,33.3,14.8,33.3,33.2V484.5z"/></g>
</svg>