<?xml version="1.0" encoding="utf-8"?>
<!-- Svg Vector Icons : http://www.sfont.cn -->
<!DOCTYPE svg PUBLIC "-//W3C//DTD SVG 1.1//EN" "http://www.w3.org/Graphics/SVG/1.1/DTD/svg11.dtd">
<svg version="1.1" xmlns="http://www.w3.org/2000/svg" xmlns:xlink="http://www.w3.org/1999/xlink" x="0px" y="0px" viewBox="0 0 1000 1000" enable-background="new 0 0 1000 1000" xml:space="preserve">
<metadata> Svg Vector Icons : http://www.sfont.cn </metadata>
<g><path d="M917.2,150H82.8C42.6,150,10,182.6,10,222.8v554.4c0,40.2,32.6,72.8,72.8,72.8h834.4c40.2,0,72.8-32.6,72.8-72.8V222.8C990,182.6,957.4,150,917.2,150z M886.4,220c0.6,0,1.1,0,1.7,0L500.2,558.2L112.3,220c0.4,0,0.9,0,1.3,0L886.4,220L886.4,220z M886.4,780H113.6C95,780,80,765,80,746.4V284.5l396.4,345.6c6.6,6.6,15.2,9.8,23.8,9.8c8.6,0,17.2-3.3,23.8-9.8l396-345.3v461.5C920,765,905,780,886.4,780z"/></g>
</svg>