<?xml version="1.0" encoding="utf-8"?>
<!-- Svg Vector Icons : http://www.sfont.cn -->
<!DOCTYPE svg PUBLIC "-//W3C//DTD SVG 1.1//EN" "http://www.w3.org/Graphics/SVG/1.1/DTD/svg11.dtd">
<svg version="1.1" xmlns="http://www.w3.org/2000/svg" xmlns:xlink="http://www.w3.org/1999/xlink" x="0px" y="0px" viewBox="0 0 1000 1000" enable-background="new 0 0 1000 1000" xml:space="preserve">
<metadata> Svg Vector Icons : http://www.sfont.cn </metadata>
<g><g><g><path d="M385.5,578.2h-67.4c-22.1,0-43,7.1-60.2,20.4c-15.7,12.1-27.3,28.6-33.4,47.6c-6.2,19-6.5,39.2-1,58.2c6.1,20.9,18.8,38.9,36.7,51.9l54.6,39.6l-20.8,64.1c-5,15.3-6.2,31.6-3.5,47.1c2.5,14.7,8.5,28.9,17.3,41c18.6,25.6,48.5,40.9,80,40.9c20.8,0,40.7-6.5,57.8-18.9l54.6-39.6l54.6,39.6c17.1,12.4,37,18.9,57.8,18.9c31.5,0,61.4-15.3,80-40.9c8.8-12.1,14.8-26.3,17.3-41c2.7-15.6,1.4-31.9-3.5-47.1L685.3,796l54.6-39.6c17.9-13,30.6-31,36.7-51.9c5.6-19,5.2-39.2-1-58.2c-6.2-19-17.7-35.5-33.4-47.6c-17.3-13.3-38.1-20.4-60.2-20.4h-67.4l-20.8-64.1c-0.1-0.4-0.3-0.9-0.4-1.3c46.1-6.3,81.8-46,81.8-93.8V105.5c0-52.2-42.5-94.7-94.7-94.7H419.7c-52.2,0-94.7,42.5-94.7,94.7V419c0,47.8,35.6,87.5,81.8,93.8c-0.1,0.4-0.3,0.9-0.4,1.3L385.5,578.2z M394.8,419V105.5c0-13.8,11.2-24.9,24.9-24.9h160.6c13.8,0,24.9,11.2,24.9,24.9V419c0,13.8-11.2,24.9-24.9,24.9H419.7C406,443.9,394.8,432.8,394.8,419z M415.3,648c12.4,0,23.5-8,27.3-19.8l30.1-92.5c4.3-13.2,15.8-19.8,27.3-19.8c11.5,0,23,6.6,27.3,19.8l30.1,92.5c3.8,11.8,14.9,19.8,27.3,19.8h97.3c27.8,0,39.4,35.6,16.9,51.9l-78.7,57.2c-10.1,7.3-14.3,20.3-10.4,32.1l30.1,92.5c6.5,20.1-9.5,37.7-27.4,37.7c-5.6,0-11.4-1.7-16.8-5.6l-78.7-57.2c-5-3.7-10.9-5.5-16.9-5.5c-5.9,0-11.8,1.8-16.9,5.5l-78.7,57.2c-5.4,3.9-11.2,5.6-16.8,5.6c-17.9,0-33.9-17.6-27.4-37.7l30.1-92.5c3.8-11.8-0.4-24.8-10.4-32.1l-78.7-57.2c-22.5-16.3-10.9-51.9,16.9-51.9H415.3z"/><path d="M612.3,990c-20.9,0-41.1-6.6-58.3-19.1L500,931.6l-54.1,39.3c-17.2,12.5-37.3,19.1-58.3,19.1c-31.7,0-61.9-15.4-80.6-41.3c-8.9-12.2-14.9-26.5-17.4-41.3c-2.7-15.7-1.4-32.1,3.6-47.5l20.7-63.6L259.7,757c-18.1-13.1-30.9-31.2-37-52.3c-5.6-19.2-5.3-39.5,1-58.7c6.2-19.2,17.9-35.8,33.7-48c17.4-13.5,38.4-20.6,60.7-20.6h66.8l20.7-63.6c0-0.1,0.1-0.2,0.1-0.4c-46.5-6.9-81.5-47.3-81.5-94.5V105.5c0-52.7,42.8-95.5,95.5-95.5h160.6c52.7,0,95.5,42.8,95.5,95.5V419c0,47.2-35,87.6-81.5,94.5c0,0.1,0.1,0.2,0.1,0.4l20.7,63.6h66.8c22.3,0,43.3,7.1,60.7,20.6c15.8,12.2,27.5,28.8,33.7,48c6.2,19.2,6.6,39.5,1,58.7c-6.2,21.1-19,39.2-37,52.3l-54.1,39.3l20.7,63.6c5,15.4,6.2,31.8,3.6,47.5c-2.5,14.8-8.6,29.1-17.4,41.3C674.2,974.6,644.1,990,612.3,990z M500,929.6l55,40c16.9,12.3,36.7,18.8,57.3,18.8c31.2,0,60.9-15.2,79.3-40.6c8.7-12,14.7-26.1,17.2-40.6c2.6-15.4,1.4-31.6-3.5-46.7l-21-64.7l0.5-0.3l54.6-39.6c17.8-12.9,30.4-30.7,36.4-51.5c5.5-18.9,5.2-38.8-0.9-57.7c-6.1-18.9-17.6-35.2-33.2-47.3C724.5,586,703.9,579,681.9,579h-68l-21-64.7c-0.1-0.2-0.2-0.5-0.2-0.7l-0.5-1.5l1-0.1c46.2-6.3,81.1-46.3,81.1-93V105.5c0-51.8-42.1-93.9-93.9-93.9H419.7c-51.8,0-93.9,42.1-93.9,93.9V419c0,46.7,34.9,86.7,81.1,93l1,0.1l-0.5,1.5c-0.1,0.2-0.2,0.5-0.3,0.7l-21,64.7h-68c-22,0-42.6,7-59.7,20.2c-15.6,12-27,28.4-33.2,47.3c-6.1,18.9-6.5,38.8-0.9,57.7c6.1,20.8,18.7,38.6,36.4,51.5l55,40l-21,64.7c-4.9,15.1-6.1,31.3-3.5,46.7c2.5,14.6,8.4,28.6,17.2,40.6c18.5,25.4,48.1,40.6,79.3,40.6c20.6,0,40.4-6.5,57.3-18.8L500,929.6z M612.3,920.2c-6.1,0-12.1-2-17.3-5.8l-78.7-57.2c-4.8-3.5-10.5-5.3-16.4-5.3c-5.9,0-11.6,1.8-16.4,5.3l-78.7,57.2c-5.2,3.8-11.2,5.8-17.3,5.8c-9.5,0-18.5-4.7-24.2-12.5c-5.6-7.7-7-17-4-26.3l30.1-92.5c3.7-11.5-0.3-24.1-10.1-31.2l-78.7-57.2c-10.5-7.7-14.7-20.6-10.7-33c4-12.4,15-20.4,28.1-20.4h97.3c12.1,0,22.8-7.7,26.5-19.3l30.1-92.5C476,523,487,515,500,515s24,8,28.1,20.4l30.1,92.5c3.7,11.5,14.4,19.3,26.5,19.3h97.3c13,0,24,8,28.1,20.4c4,12.4-0.2,25.3-10.7,33l-78.7,57.2c-9.8,7.1-13.9,19.7-10.1,31.2l30.1,92.5c3,9.3,1.6,18.6-4,26.3C630.8,915.5,621.8,920.2,612.3,920.2z M500,850.3c6.3,0,12.3,2,17.3,5.6l78.7,57.2c4.9,3.6,10.5,5.5,16.3,5.5c8.9,0,17.5-4.4,22.9-11.8c5.3-7.2,6.6-16,3.7-24.8l-30.1-92.5c-4-12.2,0.3-25.5,10.7-33l78.7-57.2c10-7.2,13.9-19.5,10.1-31.2c-3.8-11.7-14.2-19.3-26.5-19.3h-97.3c-12.8,0-24.1-8.2-28.1-20.4l-30.1-92.5c-3.8-11.7-14.2-19.3-26.5-19.3c-12.3,0-22.7,7.6-26.5,19.3l-30.1,92.5c-4,12.2-15.2,20.4-28.1,20.4h-97.3c-12.3,0-22.7,7.6-26.5,19.3c-3.8,11.7,0.2,23.9,10.1,31.2l78.7,57.2c10.4,7.5,14.7,20.8,10.7,33L361,882c-2.8,8.8-1.5,17.6,3.7,24.8c5.4,7.4,13.9,11.8,22.9,11.8c5.7,0,11.4-1.9,16.3-5.5l78.7-57.2C487.7,852.3,493.7,850.3,500,850.3z M580.3,444.7H419.7c-14.2,0-25.7-11.5-25.7-25.7V105.5c0-14.2,11.5-25.7,25.7-25.7h160.6c14.2,0,25.7,11.5,25.7,25.7V419C606,433.2,594.5,444.7,580.3,444.7z M419.7,81.4c-13.3,0-24.1,10.8-24.1,24.1V419c0,13.3,10.8,24.1,24.1,24.1h160.6c13.3,0,24.1-10.8,24.1-24.1V105.5c0-13.3-10.8-24.1-24.1-24.1H419.7z"/></g></g><g></g><g></g><g></g><g></g><g></g><g></g><g></g><g></g><g></g><g></g><g></g><g></g><g></g><g></g><g></g></g>
</svg>